<svg width="23" height="22" viewBox="0 0 23 22" fill="none" xmlns="http://www.w3.org/2000/svg">
<path d="M2.86686 21.7768C2.27103 21.7768 1.76096 21.5646 1.33665 21.1403C0.912348 20.716 0.700195 20.2059 0.700195 19.6101V4.44342C0.700195 3.84759 0.912348 3.33752 1.33665 2.91322C1.76096 2.48891 2.27103 2.27676 2.86686 2.27676H12.5356L10.3689 4.44342H2.86686V19.6101H18.0335V12.0809L20.2002 9.91426V19.6101C20.2002 20.2059 19.988 20.716 19.5637 21.1403C19.1394 21.5646 18.6294 21.7768 18.0335 21.7768H2.86686ZM7.20019 15.2768V10.6726L17.1398 0.733008C17.3564 0.516341 17.6002 0.353841 17.871 0.245508C18.1419 0.137174 18.4127 0.0830078 18.6835 0.0830078C18.9724 0.0830078 19.2478 0.137174 19.5096 0.245508C19.7714 0.353841 20.0106 0.516341 20.2273 0.733008L21.7439 2.27676C21.9426 2.49342 22.096 2.73266 22.2044 2.99447C22.3127 3.25627 22.3669 3.52259 22.3669 3.79342C22.3669 4.06426 22.3172 4.33058 22.2179 4.59238C22.1186 4.85419 21.9606 5.09342 21.7439 5.31009L11.8044 15.2768H7.20019ZM9.36686 13.1101H10.8835L17.1669 6.82676L16.4085 6.06842L15.6231 5.31009L9.36686 11.5663V13.1101Z" fill="#3ABEF5"/>
</svg>
